<?xml version="1.0" encoding="UTF-8" standalone="no"?>
<!-- Created with Inkscape (http://www.inkscape.org/) -->

<svg
   width="18.5mm"
   height="18.5mm"
   viewBox="0 0 18.5 18.5"
   version="1.1"
   id="svg1"
   inkscape:version="1.4 (e7c3feb1, 2024-10-09)"
   sodipodi:docname="universal-layer-manager.svg"
   xmlns:inkscape="http://www.inkscape.org/namespaces/inkscape"
   xmlns:sodipodi="http://sodipodi.sourceforge.net/DTD/sodipodi-0.dtd"
   xmlns="http://www.w3.org/2000/svg"
   xmlns:svg="http://www.w3.org/2000/svg">
  <sodipodi:namedview
     id="namedview1"
     pagecolor="#ffffff"
     bordercolor="#000000"
     borderopacity="0.25"
     inkscape:showpageshadow="2"
     inkscape:pageopacity="0.0"
     inkscape:pagecheckerboard="0"
     inkscape:deskcolor="#d1d1d1"
     inkscape:document-units="mm"
     inkscape:zoom="7.8445286"
     inkscape:cx="32.060562"
     inkscape:cy="25.877909"
     inkscape:window-width="1920"
     inkscape:window-height="1021"
     inkscape:window-x="693"
     inkscape:window-y="31"
     inkscape:window-maximized="1"
     inkscape:current-layer="layer1" />
  <defs
     id="defs1">
    <inkscape:path-effect
       effect="perspective-envelope"
       up_left_point="156.05317,65.988777"
       up_right_point="162.50916,62.708784"
       down_left_point="162.54947,69.219161"
       down_right_point="169.00546,65.939168"
       id="path-effect6"
       is_visible="true"
       lpeversion="1"
       deform_type="perspective"
       horizontal_mirror="false"
       vertical_mirror="false"
       overflow_perspective="false" />
  </defs>
  <g
     inkscape:label="Layer 1"
     inkscape:groupmode="layer"
     id="layer1"
     transform="translate(-51.85833,-43.391666)">
    <circle
       style="fill:#272727;fill-opacity:1;stroke:#000000;stroke-width:0.187201;stroke-linecap:square;stroke-linejoin:round;stroke-dasharray:none;stroke-opacity:1;paint-order:normal"
       id="path6"
       cx="61.10833"
       cy="52.641666"
       r="9.1563997" />
    <rect
       style="fill:#ffffff;fill-opacity:1;stroke:#000000;stroke-width:0.279084;stroke-linecap:square;stroke-linejoin:miter;stroke-dasharray:none;stroke-opacity:1;paint-order:normal"
       id="rect5"
       width="8.8607903"
       height="8.7562065"
       x="90.249825"
       y="21.612303"
       ry="0.86989784"
       transform="matrix(0.88946732,0.45699878,-0.88946732,0.45699878,0,0)"
       rx="0.73571068" />
    <rect
       style="fill:#61d4a8;fill-opacity:0.745631;stroke:#000000;stroke-width:0.279084;stroke-linecap:round;stroke-linejoin:round;stroke-dasharray:none;stroke-opacity:1"
       id="rect4"
       width="8.8607903"
       height="8.7562065"
       x="87.618874"
       y="18.98139"
       ry="0.86989778"
       transform="matrix(0.88946732,0.45699878,-0.88946732,0.45699878,0,0)"
       rx="0.73571068" />
    <rect
       style="fill:#3386b9;fill-opacity:0.866019;stroke:#000000;stroke-width:0.279488;stroke-linecap:round;stroke-linejoin:round;stroke-dasharray:none;stroke-opacity:1"
       id="rect3"
       width="8.8607903"
       height="8.7562065"
       x="84.987968"
       y="16.350473"
       transform="matrix(0.88946732,0.45699879,-0.88946732,0.45699879,0,0)"
       ry="0.77074307" />
    <path
       style="fill:#ffffff;fill-opacity:1;fill-rule:nonzero;stroke:#000000;stroke-width:0.15;stroke-linecap:round;stroke-linejoin:bevel;stroke-dasharray:none;stroke-opacity:1;paint-order:markers fill stroke"
       d="m 156.95671,66.370502 c -0.10591,0.0772 0.78798,0.465574 1.21199,0.424018 0.16546,-0.06637 0.6608,-0.01826 0.35386,0.09396 0.13571,0.05534 0.34532,0.03638 0.40844,0.133813 -0.0416,-0.133289 0.32988,0.0297 0.13743,-0.11629 0.26888,0.08539 0.13455,-0.198621 0.365,-0.07269 -0.12168,0.257381 0.58701,0.0609 0.49257,0.317221 0.0912,0.157557 0.36844,0.268254 0.49573,0.399773 0.48594,0.260096 0.33243,-0.385567 0.67862,-0.124295 0.30074,0.11112 0.55153,0.291251 0.98833,0.325773 0.16813,0.123732 0.30626,-0.08737 0.56714,-0.02075 0.28811,-0.07225 0.77883,-0.06928 0.78067,-0.282626 0.32545,-0.03104 0.16856,-0.150471 0.32842,-0.260169 0.34333,-0.07382 0.66726,-0.16591 0.9984,-0.241579 -0.0503,-0.317278 0.80206,0.01617 0.8112,0.199245 0.0328,0.282323 0.63812,0.205651 0.79575,0.03394 0.41208,-0.03493 0.56188,-0.207206 0.70663,-0.356584 0.4338,-0.07875 0.3451,-0.374027 0.48246,-0.573214 0.0316,-0.157663 -0.3799,-0.242579 -0.19496,-0.366776 -0.25729,-0.183003 -0.39214,-0.398491 -0.32403,-0.604245 -0.37522,-0.08741 -0.45215,-0.270856 -0.38163,-0.443681 -0.31777,-0.06418 -0.28077,-0.387832 -0.65948,-0.238429 -0.20346,-0.0917 -0.43714,-0.1614 -0.44561,-0.296545 -0.33015,-0.07295 -0.46756,-0.09064 -0.77014,-0.04845 -0.27374,0.01997 -0.61011,0.06913 -0.72074,-0.143215 -0.10867,-0.193423 -0.57144,-0.249616 -0.88612,-0.356096 -0.17665,-0.114008 -0.51068,-0.339625 -0.73934,-0.159032 -0.16214,0.09217 -0.70495,0.05702 -0.82054,0.236914 -0.0206,0.201459 -0.59795,-0.192244 -0.73921,0.04543 -0.22843,0.250695 -0.99523,0.09282 -1.23703,0.334229 -0.3705,0.13152 -0.66842,0.253854 -0.78432,0.485704 0.11944,0.193023 0.0218,0.411017 0.3232,0.578164 -0.0859,0.146351 0.4063,0.170837 0.4648,0.338893 0.34806,0.157476 0.3856,0.363663 0.028,0.488551 -0.15365,0.181205 -0.23251,0.374567 -0.72484,0.317249 -0.40525,0.08937 -0.75308,0.04323 -1.19671,0.06838 -0.33538,-0.02341 -0.68801,-0.193791 -0.79392,-0.11659 z"
       id="path2"
       sodipodi:nodetypes="zcccccccccccccccccccccccccccccccccccz"
       inkscape:path-effect="#path-effect6"
       inkscape:original-d="m 156.48293,58.918481 c -0.21392,0.03187 -0.12147,1.179859 0.2943,1.416758 0.24486,0.02412 0.57136,0.43257 0.13508,0.372994 0.02,0.169351 0.22294,0.288621 0.11414,0.465076 0.18551,-0.210395 0.22128,0.26883 0.30413,-0.06332 0.0796,0.302483 0.4374,-0.177488 0.41873,0.153631 -0.52365,0.266462 0.38051,0.489342 -0.11907,0.77322 -0.1848,0.277843 -0.14009,0.620565 -0.25247,0.887887 -0.0304,0.690793 0.90744,-0.29523 0.76063,0.300422 0.0633,0.359598 -0.028,0.778644 0.27293,1.128061 -0.0661,0.284982 0.39479,0.09296 0.49875,0.364334 0.35501,0.101005 0.75208,0.44475 1.10503,0.155327 0.31771,0.183009 0.38594,-0.08834 0.69759,-0.127145 0.40282,0.137087 0.81987,0.235853 1.21576,0.361979 0.48143,-0.46714 0.63036,0.577264 0.33627,0.833046 -0.43819,0.407394 0.18394,0.721956 0.59591,0.597108 0.39508,0.237677 0.80158,0.106638 1.16621,0.0033 0.48507,0.192998 0.89881,-0.270734 1.33944,-0.447052 0.28561,-0.192938 0.0884,-0.593521 0.44448,-0.634719 0.0907,-0.427464 0.33521,-0.81443 0.72993,-1.047637 -0.16337,-0.378845 0.0758,-0.682065 0.41826,-0.868729 -0.15457,-0.307434 0.40887,-0.722815 -0.14745,-0.781409 -0.0156,-0.265788 -0.0922,-0.522529 0.12348,-0.712537 -0.15027,-0.327951 -0.23368,-0.447175 -0.55104,-0.59915 -0.25712,-0.162288 -0.61363,-0.328157 -0.35446,-0.694074 0.2296,-0.338783 -0.0569,-0.735701 -0.13926,-1.098626 0.0431,-0.277633 0.14114,-0.816284 -0.34365,-0.728506 -0.28465,0.01335 -0.67137,-0.410321 -1.06239,-0.245215 -0.34871,0.260258 -0.17312,-0.675879 -0.68035,-0.449816 -0.60008,0.183452 -0.96812,-0.562482 -1.56385,-0.400933 -0.52014,-0.07728 -0.96569,-0.116827 -1.44255,0.11885 -0.22012,0.345692 -0.65922,0.575111 -0.68765,1.011522 -0.31147,0.139925 0.0514,0.514043 -0.17751,0.78353 0.0257,0.455519 -0.2832,0.762446 -0.78186,0.685048 -0.42435,0.140542 -0.80747,0.349415 -1.11633,-0.0695 -0.47917,-0.158763 -0.68808,-0.462419 -1.09289,-0.735265 -0.23615,-0.264073 -0.24435,-0.740338 -0.45827,-0.70846 z"
       transform="translate(-101.35096,-15.651878)" />
  </g>
</svg>
